#!OML:ASF X:\für Bonn\!DataBase\2005_08_12_Daniel\c3d\Daniel.ASF
:FULLY-SPECIFIED
:DEGREES
17
root -4.43902 16.0401 -1.02726 341.522 -87.9319 -356.358
lowerback 27.1567 -2.37382 1.77941
upperback 2.4034 -3.3058 -3.48882
thorax -12.7615 -1.84612 -3.76558
lowerneck 4.64153 0.92987 -2.62031
upperneck 1.89057 1.06664 3.18466
head -0.226527 0.482224 1.40622
rclavicle -9.01985e-015 -1.03368e-014
rhumerus 92.1772 -33.3896 -199.024
rradius 10.7665
rwrist 165.324
rhand -22.8162 18.8933
rfingers 7.12502
rthumb 3.62056 -11.0557
lclavicle -9.01985e-015 -1.03368e-014
lhumerus 50.9998 -4.40792 88.2989
lradius 9.92579
lwrist -61.2302
lhand -14.9426 -0.874209
lfingers 7.12502
lthumb 11.2202 28.8057
rfemur -5.8393 -10.6981 11.4846
rtibia 53.0127
rfoot -26.9331 2.51461
rtoes -11.7052
lfemur -11.5568 -0.775046 -13.9645
ltibia 57.6758
lfoot -28.5001 -10.0987
ltoes -0.234002
18
root -4.41483 15.9257 -1.02963 342.763 -87.9336 -357.932
lowerback 27.803 -2.39473 1.86381
upperback 2.5506 -3.31258 -3.46356
thorax -12.9363 -1.85731 -3.77145
lowerneck 4.75502 0.938133 -2.69861
upperneck 1.6467 1.0788 3.20707
head -0.322383 0.487536 1.42674
rclavicle 1.74185e-014 1.59028e-014
rhumerus 91.6514 -33.1393 -198.126
rradius 10.6941
rwrist 164.647
rhand -22.7137 18.8863
rfingers 7.12502
rthumb 3.71962 -11.061
lclavicle 1.74185e-014 1.59028e-014
lhumerus 51.2954 -4.41215 88.2667
lradius 10.028
lwrist -61.3002
lhand -14.9119 -0.872794
lfingers 7.12502
lthumb 11.2497 28.8056
rfemur -6.80813 -11.5328 11.054
rtibia 55.25
rfoot -26.8519 3.59443
rtoes -11.7026
lfemur -12.4313 -0.045123 -13.5637
ltibia 59.5865
lfoot -28.7165 -11.0242
ltoes -0.174828
19
root -4.39153 15.8066 -1.03144 344.391 -87.9349 -359.908
lowerback 28.4663 -2.41974 1.95669
upperback 2.69265 -3.32036 -3.43293
thorax -13.1238 -1.86955 -3.77534
lowerneck 4.91973 0.942005 -2.72495
upperneck 1.36894 1.08695 3.1988
head -0.436813 0.49089 1.42865
rclavicle 2.26615e-014 5.00937e-014
rhumerus 91.0791 -32.9007 -197.163
rradius 10.6482
rwrist 163.88
rhand -22.6374 18.9562
rfingers 7.12502
rthumb 3.79321 -10.9898
lclavicle 2.26615e-014 5.00937e-014
lhumerus 51.64 -4.83593 87.7047
lradius 10.1321
lwrist -60.6153
lhand -14.8483 -0.758939
lfingers 7.12502
lthumb 11.311 28.9161
rfemur -7.76548 -12.3812 10.6059
rtibia 57.516
rfoot -26.7465 4.68239
rtoes -11.574
lfemur -13.3015 0.653493 -13.1549
ltibia 61.5236
lfoot -28.9677 -11.8677
ltoes -0.176905
20
root -4.36888 15.6845 -1.03466 345.323 -87.9155 -361.172
lowerback 29.159 -2.44756 2.00742
upperback 2.48958 -3.352 -3.55125
thorax -12.9742 -1.85128 -3.61691
lowerneck 5.02273 0.953515 -2.73154
upperneck 1.13402 1.10646 3.15719
head -0.527609 0.500895 1.41644
rclavicle -4.22417e-015 -7.15625e-015
rhumerus 90.7201 -32.5654 -196.643
rradius 10.5961
rwrist 163.404
rhand -22.5498 19.0759
rfingers 7.12502
rthumb 3.87789 -10.8686
lclavicle -4.22417e-015 -7.15625e-015
lhumerus 52.0239 -5.17174 87.2299
lradius 10.2497
lwrist -60.1083
lhand -14.7627 -0.648824
lfingers 7.12502
lthumb 11.3936 29.0216
rfemur -8.75477 -13.2501 10.1124
rtibia 59.8025
rfoot -26.6224 5.79265
rtoes -11.5329
lfemur -14.1862 1.3589 -12.7522
ltibia 63.4547
lfoot -29.1639 -12.7672
ltoes -0.0879426
21
root -4.34904 15.5613 -1.03655 346.487 -87.9178 -362.662
lowerback 29.7954 -2.47479 2.08576
upperback 2.61375 -3.36676 -3.53074
thorax -13.1204 -1.86457 -3.61253
lowerneck 5.09286 0.973072 -2.7497
upperneck 0.920559 1.1363 3.15914
head -0.607245 0.515854 1.41999
rclavicle 8.00108e-015 9.54166e-015
rhumerus 90.5051 -32.1887 -196.337
rradius 10.512
rwrist 163.107
rhand -22.4713 19.1675
rfingers 7.12502
rthumb 3.95364 -10.7756
lclavicle 8.00108e-015 9.54166e-015
lhumerus 52.4293 -5.55643 86.6602
lradius 10.3483
lwrist -59.4977
lhand -14.7062 -0.601938
lfingers 7.12502
lthumb 11.4481 29.0655
rfemur -9.75286 -14.1192 9.59552
rtibia 62.0909
rfoot -26.4475 6.95111
rtoes -11.4318
lfemur -15.0536 2.04872 -12.3441
ltibia 65.3735
lfoot -29.3583 -13.5994
ltoes -0.0552478
22
root -4.32944 15.437 -1.03935 347.336 -87.907 -363.834
lowerback 30.4343 -2.50074 2.15282
upperback 2.73972 -3.38561 -3.52587
thorax -13.2628 -1.87983 -3.61708
lowerneck 5.16516 0.975997 -2.64032
upperneck 0.697147 1.1505 3.062
head -0.687653 0.524323 1.3701
rclavicle -1.33683e-014 -3.18055e-014
rhumerus 90.3506 -31.7558 -196.18
rradius 10.4546
rwrist 162.876
rhand -22.4093 19.3246
rfingers 7.12502
rthumb 4.01354 -10.6173
lclavicle -1.33683e-014 -3.18055e-014
lhumerus 52.9002 -6.07775 85.871
lradius 10.4197
lwrist -58.6592
lhand -14.6866 -0.513678
lfingers 7.12502
lthumb 11.467 29.1527
rfemur -10.7494 -15.0293 9.0327
rtibia 64.3811
rfoot -26.2267 8.10484
rtoes -11.2665
lfemur -15.9181 2.73806 -11.9293
ltibia 67.2805
lfoot -29.5193 -14.502
ltoes 0.0299062
23
root -4.31114 15.3096 -1.04184 348.921 -87.8976 -365.736
lowerback 31.067 -2.5382 2.23847
upperback 2.86737 -3.40967 -3.50353
thorax -13.3964 -1.89794 -3.61077
lowerneck 5.18975 0.996115 -2.58574
upperneck 0.498283 1.18542 3.01964
head -0.754134 0.542788 1.3468
rclavicle 2.58917e-014 -7.95139e-016
rhumerus 90.3938 -31.2511 -196.427
rradius 10.3806
rwrist 163.021
rhand -22.3684 19.4171
rfingers 7.12502
rthumb 4.05302 -10.5241
lclavicle 2.58917e-014 -7.95139e-016
lhumerus 53.4001 -6.5739 85.0386
lradius 10.493
lwrist -57.8067
lhand -14.7389 -0.512886
lfingers 7.12502
lthumb 11.4166 29.1563
rfemur -11.7169 -15.9355 8.48473
rtibia 66.6507
rfoot -25.9957 9.26264
rtoes -11.1733
lfemur -16.7979 3.41441 -11.4739
ltibia 69.2023
lfoot -29.6484 -15.411
ltoes 0.189997
24
root -4.2917 15.1764 -1.04443 349.656 -87.8976 -366.777
lowerback 31.7133 -2.55753 2.30555
upperback 2.97239 -3.41759 -3.49531
thorax -13.5567 -1.90841 -3.61558
lowerneck 5.25621 1.01003 -2.52407
upperneck 0.303392 1.21108 2.9787
head -0.826277 0.556087 1.32295
rclavicle -1.99779e-014 -1.27222e-014
rhumerus 90.3235 -30.7826 -196.416
rradius 10.3535
rwrist 163.011
rhand -22.3844 19.5127
rfingers 7.12502
rthumb 4.03756 -10.4287
lclavicle -1.99779e-014 -1.27222e-014
lhumerus 53.9401 -7.10951 84.1811
lradius 10.4955
lwrist -56.9564
lhand -14.8344 -0.567127
lfingers 7.12502
lthumb 11.3245 29.1071
rfemur -12.702 -16.8267 7.88031
rtibia 68.9276
rfoot -25.7262 10.5144
rtoes -10.9
lfemur -17.7094 4.10246 -11.0352
ltibia 71.15
lfoot -29.7245 -16.3224
ltoes 0.374346
25
root -4.27283 15.0372 -1.04651 350.418 -87.8888 -367.85
lowerback 32.3509 -2.58579 2.37068
upperback 3.09356 -3.43798 -3.48742
thorax -13.6916 -1.92458 -3.61481
lowerneck 5.30929 1.02059 -2.40269
upperneck 0.0804342 1.23617 2.87942
head -0.903687 0.570057 1.27031
rclavicle 1.2424e-014 4.77083e-015
rhumerus 90.2261 -30.2745 -196.376
rradius 10.3056
rwrist 163.006
rhand -22.362 19.5372
rfingers 7.12502
rthumb 4.05924 -10.4039
lclavicle 1.2424e-014 4.77083e-015
lhumerus 54.4981 -7.59335 83.3039
lradius 10.5169
lwrist -56.1759
lhand -14.9574 -0.678635
lfingers 7.12502
lthumb 11.2058 29.0021
rfemur -13.6728 -17.7334 7.23932
rtibia 71.2035
rfoot -25.4199 11.7946
rtoes -10.6758
lfemur -18.641 4.79181 -10.5771
ltibia 73.1329
lfoot -29.7762 -17.2872
ltoes 0.60123
